<?xml version="1.0" encoding="UTF-8" standalone="no"?>
<!-- Created with Inkscape (http://www.inkscape.org/) -->

<svg
   width="109.57956mm"
   height="35.038372mm"
   viewBox="0 0 109.57956 35.038372"
   version="1.1"
   id="svg5"
   xml:space="preserve"
   inkscape:version="1.2.2 (b0a84865, 2022-12-01)"
   sodipodi:docname="drawing.svg"
   xmlns:inkscape="http://www.inkscape.org/namespaces/inkscape"
   xmlns:sodipodi="http://sodipodi.sourceforge.net/DTD/sodipodi-0.dtd"
   xmlns="http://www.w3.org/2000/svg"
   xmlns:svg="http://www.w3.org/2000/svg"><sodipodi:namedview
     id="namedview7"
     pagecolor="#ffffff"
     bordercolor="#000000"
     borderopacity="0.25"
     inkscape:showpageshadow="2"
     inkscape:pageopacity="0.0"
     inkscape:pagecheckerboard="0"
     inkscape:deskcolor="#d1d1d1"
     inkscape:document-units="mm"
     showgrid="false"
     inkscape:zoom="0.71365631"
     inkscape:cx="390.94449"
     inkscape:cy="178.65743"
     inkscape:window-width="1512"
     inkscape:window-height="945"
     inkscape:window-x="0"
     inkscape:window-y="37"
     inkscape:window-maximized="0"
     inkscape:current-layer="layer1" /><defs
     id="defs2" /><g
     inkscape:label="Layer 1"
     inkscape:groupmode="layer"
     id="layer1"
     transform="translate(-46.773031,-71.111792)"><path
       style="fill:#000000;stroke-width:0.0734525"
       d="m 135.60104,106.13413 c -0.44216,-0.0715 -0.65311,-0.17849 -0.87727,-0.44489 -0.16561,-0.19682 -0.19639,-0.29197 -0.16651,-0.51475 0.0428,-0.31884 0.24698,-0.62445 0.45616,-0.68262 0.48319,-0.1344 0.84715,0.0256 1.22396,0.53795 l 0.22881,0.31113 0.32457,-0.31743 c 0.17852,-0.17459 0.55512,-0.71991 0.83689,-1.21182 l 0.51233,-0.89439 -1.06188,-2.52115 c -1.66609,-3.955701 -1.64715,-3.921791 -2.29212,-4.102371 -0.31341,-0.0877 -0.32346,-0.0997 -0.32346,-0.38481 v -0.29425 l 1.70778,0.0529 c 0.93927,0.0291 1.73514,0.0791 1.7686,0.11122 0.0335,0.0321 0.05,0.15326 0.0367,0.26928 -0.022,0.19245 -0.0595,0.21772 -0.42784,0.2883 -0.26423,0.0506 -0.41137,0.11696 -0.42581,0.19196 -0.0202,0.10493 1.70029,4.365661 1.81007,4.482541 0.057,0.0607 1.65087,-3.509321 1.77309,-3.971581 0.10334,-0.39093 0.0727,-0.42991 -0.49667,-0.63141 -0.40617,-0.14375 -0.42145,-0.15873 -0.44411,-0.43571 l -0.0235,-0.28684 1.08854,0.0472 c 0.59869,0.026 1.24554,0.0476 1.43743,0.0481 0.34539,9.1e-4 0.3489,0.003 0.3489,0.24271 0,0.21957 -0.0365,0.25967 -0.39704,0.43651 -0.21838,0.1071 -0.48077,0.3045 -0.5831,0.43866 -0.10233,0.13416 -0.87395,1.74767 -1.71472,3.585591 -1.70368,3.72425 -2.24631,4.69051 -2.93047,5.21835 -0.44198,0.34098 -0.95822,0.50136 -1.38938,0.43163 z m -6.53727,-0.15414 c -0.2424,-0.037 -0.71069,-0.18574 -1.04067,-0.33059 -0.74091,-0.32526 -1.02234,-0.65892 -1.09788,-1.30165 -0.10335,-0.87932 0.29926,-1.34811 1.42701,-1.66159 l 0.71154,-0.19778 -0.47338,-0.23993 c -0.7291,-0.36954 -0.9629,-0.76943 -0.80352,-1.37429 0.0822,-0.3121 0.41985,-0.65554 0.89853,-0.914001 l 0.21932,-0.11842 -0.39792,-0.25803 c -0.54116,-0.35091 -0.82163,-0.67474 -1.02031,-1.17808 -0.144,-0.3648 -0.16019,-0.49816 -0.1155,-0.95165 0.0625,-0.63445 0.14216,-0.79837 0.60358,-1.24243 0.43677,-0.42031 0.87798,-0.65007 1.46471,-0.76275 0.3756,-0.0721 0.59764,-0.0643 1.35887,0.0479 0.60066,0.0886 1.34053,0.13481 2.17696,0.13606 l 1.26706,0.002 v 0.38563 0.38562 l -0.88647,-0.0262 -0.88647,-0.0263 0.23677,0.46697 c 0.17943,0.35388 0.24471,0.59148 0.26957,0.98113 0.0312,0.4884 0.0189,0.53839 -0.24497,0.99759 -0.22994,0.40015 -0.36723,0.5418 -0.79707,0.82242 -0.6161,0.402221 -0.94826,0.489551 -1.87122,0.491951 -0.62596,0.002 -0.71395,0.0194 -0.93652,0.18916 -0.19308,0.14727 -0.24566,0.24046 -0.24566,0.43539 0,0.49826 0.47828,0.65089 2.31376,0.73838 1.01925,0.0486 1.784,0.22041 2.20274,0.49489 0.12929,0.0848 0.35703,0.32863 0.5061,0.54193 0.21607,0.30921 0.28345,0.4889 0.33234,0.88634 0.0553,0.44955 0.042,0.54748 -0.13506,0.99718 -0.44244,1.1234 -1.69866,1.67895 -3.75083,1.65875 -0.46458,-0.005 -1.04302,-0.0386 -1.28541,-0.0755 z m 2.90137,-0.71838 c 0.57374,-0.22978 0.85756,-0.52747 0.95628,-1.00298 0.0569,-0.27408 0.0578,-0.47121 0.003,-0.67441 -0.15237,-0.5659 -0.39395,-0.66384 -1.87359,-0.75961 -1.27715,-0.0827 -1.49052,-0.0555 -2.22888,0.28413 -0.44137,0.20298 -0.65253,0.90938 -0.42881,1.43444 0.27942,0.65574 1.06039,0.94554 2.43341,0.90298 0.54532,-0.0169 0.83858,-0.0644 1.13851,-0.18455 z m -1.32743,-5.777111 c 0.40186,-0.16079 0.62455,-0.48585 0.76952,-1.12325 0.11486,-0.50498 0.11495,-0.58137 0.001,-1.1379 -0.0669,-0.32812 -0.16142,-0.65331 -0.20999,-0.72265 -0.42294,-0.60383 -1.43738,-0.71751 -1.89856,-0.21276 -0.0962,0.10531 -0.23474,0.39617 -0.30783,0.64637 -0.11383,0.38965 -0.12243,0.54857 -0.06,1.108 0.0991,0.88755 0.40908,1.34697 1.00482,1.48924 0.34334,0.082 0.38507,0.0792 0.70058,-0.047 z m -9.26779,3.342381 c -0.39401,-0.0929 -1.07623,-0.45198 -1.44666,-0.76146 -1.70254,-1.42244 -1.77203,-4.408641 -0.1368,-5.878861 0.82407,-0.7409 1.6007,-0.97095 2.89752,-0.85827 1.06357,0.0924 1.60487,0.33442 2.26786,1.01393 0.5979,0.61279 0.86442,1.1725 0.98546,2.06953 0.11713,0.86802 0.0504,1.55167 -0.22012,2.254111 -0.44278,1.14989 -1.30653,1.92504 -2.40469,2.15805 -0.45094,0.0957 -1.54223,0.0974 -1.94257,0.003 z m 1.75982,-0.70279 c 0.31682,-0.1603 0.43644,-0.28061 0.67552,-0.67944 0.4021,-0.67077 0.53735,-1.24944 0.54259,-2.321511 0.004,-0.7679 -0.0227,-0.96998 -0.20433,-1.56215 -0.17948,-0.58509 -0.26087,-0.73545 -0.5823,-1.07573 -0.47574,-0.50363 -0.82987,-0.64504 -1.45603,-0.58141 -0.62905,0.0639 -0.99491,0.32187 -1.36641,0.96335 -0.56549,0.97648 -0.64424,2.80709 -0.17368,4.037241 0.19252,0.5033 0.70153,1.10473 1.07613,1.27153 0.45335,0.20187 1.02646,0.1819 1.48851,-0.0519 z m -14.59594,0.49367 c -0.73655,-0.16639 -1.21306,-0.42424 -1.73388,-0.93826 -0.78014,-0.76992 -1.12317,-1.65344 -1.12819,-2.905811 -0.005,-1.13056 0.39301,-2.11018 1.12478,-2.77173 0.49545,-0.4479 0.87022,-0.65453 1.4802,-0.81614 1.81942,-0.48203 3.7553,0.40593 4.43195,2.03286 0.17595,0.42304 0.30573,1.22339 0.30573,1.88529 0,1.663341 -1.13006,3.177481 -2.60755,3.493771 -0.67099,0.14365 -1.2962,0.15032 -1.87304,0.02 z m 1.5037,-0.59191 c 0.10512,-0.04 0.35044,-0.23197 0.54516,-0.42669 0.46074,-0.46074 0.66099,-0.99004 0.75589,-1.998021 0.0627,-0.6664 0.0521,-0.89013 -0.0783,-1.64565 -0.12768,-0.7397 -0.19486,-0.94653 -0.43616,-1.34271 -0.40524,-0.66532 -0.7988,-0.90463 -1.48778,-0.90463 -0.36845,0 -0.59576,0.0414 -0.8006,0.14594 -0.28358,0.14467 -0.91411,0.84035 -0.98382,1.08547 -0.3594,1.26379 -0.34786,2.5134 0.0331,3.584851 0.18879,0.53098 0.30355,0.72854 0.6023,1.03695 0.22942,0.23683 0.46904,0.40767 0.63324,0.45149 0.35707,0.0953 0.98298,0.10197 1.21697,0.013 z m 5.40082,0.58924 -1.43232,-0.0391 -0.0228,-0.2362 c -0.0247,-0.25529 -0.0157,-0.26044 0.5999,-0.34331 0.5127,-0.069 0.48776,0.18769 0.46858,-4.824691 l -0.0173,-4.52277 -0.18229,-0.26598 c -0.16,-0.23344 -0.24983,-0.28258 -0.73453,-0.40178 -0.55211,-0.13577 -0.55224,-0.13587 -0.57459,-0.40052 l -0.0224,-0.26472 0.86706,-0.0446 c 0.47688,-0.0245 1.11858,-0.0575 1.42599,-0.0733 0.30742,-0.0158 0.59269,-0.007 0.63393,0.0187 0.049,0.031 0.092,1.77741 0.12421,5.04221 0.0271,2.74713 0.0679,5.093931 0.0907,5.215131 0.0228,0.12119 0.0764,0.26358 0.11899,0.31641 0.10465,0.12974 0.544,0.30793 0.75922,0.30793 0.1548,0 0.17466,0.0334 0.17466,0.29381 v 0.29381 l -0.42235,-0.016 c -0.23229,-0.009 -1.0669,-0.0336 -1.85468,-0.0551 z m -13.27655,-0.20425 -1.12015,-0.0223 v -0.2466 c 0,-0.26968 0.11001,-0.33427 0.5726,-0.33618 0.1614,-7.4e-4 0.30527,-0.0642 0.43178,-0.19074 l 0.18973,-0.18972 -0.0543,-2.178801 c -0.0606,-2.42739 -0.11494,-2.72072 -0.57656,-3.10914 -0.45828,-0.38562 -1.32746,-0.32484 -2.013065,0.14078 -0.65215,0.44288 -0.62645,0.3217 -0.59381,2.79988 0.023,1.749621 0.0497,2.208381 0.13623,2.341991 0.10785,0.16657 0.53525,0.36129 0.879105,0.40052 0.1569,0.0179 0.18363,0.0584 0.18363,0.27803 v 0.25709 l -1.836295,-0.0267 c -1.00998,-0.0147 -1.86111,-0.0414 -1.89141,-0.0594 -0.0303,-0.018 -0.0551,-0.12636 -0.0551,-0.24086 0,-0.19729 0.0235,-0.21231 0.44942,-0.28734 0.2712,-0.0478 0.48873,-0.13098 0.54856,-0.20984 0.1188,-0.15659 0.14259,-3.508031 0.0329,-4.641751 -0.0785,-0.81226 -0.2055,-0.99719 -0.78505,-1.14364 -0.33456,-0.0845 -0.35741,-0.10568 -0.3784,-0.3501 l -0.0223,-0.26012 0.9405,-0.0456 c 0.51727,-0.0251 1.07789,-0.0572 1.24582,-0.0713 0.16793,-0.0141 0.34801,6.6e-4 0.40019,0.0329 0.0562,0.0348 0.10752,0.25751 0.12598,0.54726 l 0.0311,0.48864 0.26649,-0.2507 c 0.51475,-0.48423 0.951875,-0.69644 1.662075,-0.80688 0.5926,-0.0921 0.71118,-0.0901 1.14477,0.0194 0.26603,0.0672 0.59172,0.20154 0.72374,0.29857 0.22962,0.16876 0.60921,0.81115 0.75526,1.27821 0.0379,0.1212 0.0936,1.25484 0.12367,2.5192 0.0623,2.617001 0.0353,2.514481 0.70938,2.686441 0.31552,0.0805 0.36413,0.11923 0.4059,0.32345 0.0261,0.1276 0.0298,0.24965 0.008,0.2712 -0.0216,0.0215 -0.37247,0.0318 -0.77983,0.0229 -0.40736,-0.009 -1.24473,-0.0264 -1.86082,-0.0386 z m -18.969093,-0.16643 c -0.67324,-0.10025 -1.15914,-0.33864 -1.72798,-0.84774 -0.58738,-0.5257 -0.91023,-1.04808 -1.08702,-1.758811 -0.35219,-1.41592 -0.15031,-2.6415 0.60313,-3.66139 0.52584,-0.71181 1.18702,-1.08532 2.16423,-1.2226 1.16023,-0.163 1.99974,0.0543 2.59585,0.67198 0.37829,0.39196 0.46334,0.60735 0.46334,1.17335 0,0.67164 -0.19318,0.93882 -0.68179,0.94293 -0.37116,0.003 -0.74765,-0.16274 -0.90114,-0.397 -0.11183,-0.17067 -0.11616,-0.26259 -0.0403,-0.85435 0.0468,-0.3647 0.0635,-0.69794 0.0372,-0.74053 -0.16351,-0.26456 -1.06374,-0.3688 -1.50837,-0.17466 -0.37129,0.16212 -0.53248,0.32369 -0.81877,0.8207 -0.32994,0.57279 -0.44503,1.11676 -0.43631,2.06211 0.0116,1.25721 0.30343,2.018511 1.01782,2.655241 0.52246,0.46565 0.99064,0.58336 1.79859,0.45219 l 0.54146,-0.0879 0.53491,-0.56 0.53491,-0.56001 0.25267,0.13607 0.25267,0.13607 -0.12651,0.22049 c -0.16896,0.29448 -0.71693,0.84916 -1.08678,1.10008 -0.61931,0.42017 -1.56271,0.61575 -2.38181,0.49379 z m 9.860998,0.0195 -1.1936,-0.0221 v -0.24741 c 0,-0.27844 0.0875,-0.33657 0.50632,-0.33657 0.1801,0 0.33293,-0.0549 0.4461,-0.16038 l 0.17215,-0.16038 -0.0474,-2.135011 c -0.0509,-2.28977 -0.10201,-2.65436 -0.42583,-3.03628 -0.21375,-0.25209 -0.63583,-0.45761 -0.93982,-0.45761 -0.43546,0 -1.13607,0.30467 -1.492708,0.64912 l -0.3489,0.33697 0.007,1.58199 c 0.004,0.8701 0.0286,1.890921 0.0552,2.268511 0.0454,0.6442 0.0615,0.69705 0.26264,0.85739 0.11787,0.094 0.365708,0.19837 0.550748,0.23196 0.3259,0.0592 0.33717,0.0701 0.35993,0.34784 l 0.0235,0.28677 -1.008348,-0.0484 c -0.55459,-0.0266 -1.39976,-0.0484 -1.87816,-0.0484 h -0.86982 v -0.25375 c 0,-0.23639 0.0189,-0.25679 0.27545,-0.29804 0.54649,-0.0879 0.61226,-0.11614 0.69556,-0.29898 0.0636,-0.13963 0.065,-1.28313 0.006,-4.613241 -0.0839,-4.70981 -0.0791,-4.65592 -0.44489,-4.98698 -0.11515,-0.1042 -0.767,-0.27049 -1.0688,-0.27265 -0.0327,-2.2e-4 -0.0493,-0.12437 -0.0367,-0.27587 l 0.0228,-0.27544 1.38783,-0.0592 c 0.91077,-0.0388 1.41319,-0.0338 1.46161,0.0146 0.045,0.045 0.0879,1.04803 0.10989,2.57493 0.0199,1.37563 0.05,2.50115 0.0669,2.50115 0.0169,0 0.28497,-0.19317 0.595678,-0.42926 0.3107,-0.2361 0.73018,-0.48384 0.93218,-0.55054 0.71507,-0.23612 1.79536,-0.12386 2.30581,0.23962 0.26469,0.18847 0.66749,0.86918 0.7599,1.28419 0.0368,0.16538 0.0904,1.27577 0.11914,2.46754 0.0622,2.581241 0.0508,2.538591 0.7265,2.740321 0.44669,0.13338 0.45907,0.14384 0.45907,0.38778 v 0.25071 l -0.67943,-0.0164 c -0.37369,-0.009 -1.21656,-0.0264 -1.87304,-0.0386 z m -17.389878,-0.19944 c -0.4966,-0.0746 -0.68636,-0.14795 -1.22506,-0.47388 -0.57131,-0.34566 -0.67673,-0.44551 -1.01627,-0.96269 -0.55465,-0.844841 -0.68533,-1.303971 -0.68949,-2.422371 -0.004,-1.05194 0.13261,-1.55066 0.62329,-2.27703 0.98167,-1.4532 2.94243,-1.82666 4.46535,-0.85049 0.43113,0.27635 0.56134,0.41158 0.82716,0.85902 0.26072,0.43885 0.33101,0.6404 0.40491,1.16105 0.0492,0.3465 0.0916,0.74269 0.0943,0.88041 l 0.005,0.25041 -2.46817,-0.051 -2.46818,-0.051 0.0488,0.46168 c 0.0767,0.72504 0.3848,1.504311 0.77044,1.948471 0.54797,0.6311 1.51552,0.90209 2.44794,0.68561 0.31053,-0.0721 1.00846,-0.63044 1.20594,-0.96475 0.15095,-0.25553 0.20278,-0.262321 0.52102,-0.0683 l 0.24144,0.14721 -0.27737,0.39117 c -0.15254,0.21514 -0.48476,0.55368 -0.73824,0.75231 -0.37973,0.29755 -0.57388,0.38993 -1.10259,0.5246 -0.71362,0.18178 -0.82868,0.18589 -1.67004,0.0596 z m 1.9037,-4.795461 c -0.20188,-1.12441 -0.24722,-1.28494 -0.43107,-1.52597 -0.28,-0.3671 -0.5176,-0.50031 -0.98791,-0.55387 -0.89264,-0.10166 -1.56424,0.48486 -1.79519,1.56776 -0.067,0.31424 -0.12185,0.60222 -0.12185,0.63995 0,0.071 0.62978,0.10612 2.37217,0.13233 l 1.0133,0.0152 z m -11.7647,4.551791 -0.89979,-0.0206 v -0.28495 -0.28496 l 0.62602,-0.0521 c 0.55112,-0.0459 0.65314,-0.0775 0.8526,-0.26379 l 0.22657,-0.21164 -0.0475,-1.266951 c -0.0825,-2.1995 -0.18758,-5.93932 -0.18812,-6.69293 l -5.2e-4,-0.72503 -0.90648,0.0302 c -0.89011,0.0296 -0.91187,0.0344 -1.20445,0.26617 -0.34702,0.27484 -0.71357,0.81749 -0.97593,1.44475 -0.17566,0.41997 -0.20004,0.4447 -0.45967,0.46632 -0.1773,0.0148 -0.28591,-0.0112 -0.30737,-0.0734 -0.0183,-0.053 -0.0428,-0.7039 -0.0545,-1.44654 l -0.0213,-1.35026 4.66423,0.0531 c 2.56533,0.0292 4.68957,0.0771 4.72054,0.10645 0.031,0.0294 0.0776,0.68975 0.10361,1.46757 l 0.0473,1.41421 -0.28491,-0.0235 c -0.27304,-0.0225 -0.29571,-0.0452 -0.54432,-0.54355 -0.34393,-0.68948 -0.66936,-1.14028 -1.02844,-1.42468 -0.26104,-0.20675 -0.3725,-0.24096 -0.97483,-0.29924 -0.37404,-0.0362 -0.78243,-0.0667 -0.90753,-0.0678 l -0.22744,-0.002 0.0294,0.89979 c 0.0162,0.49489 0.0736,2.40374 0.12767,4.24188 0.0671,2.28021 0.12675,3.403701 0.18782,3.535991 0.11368,0.24627 0.33265,0.34888 1.06492,0.49902 l 0.58762,0.12048 0.0232,0.27875 0.0232,0.27874 -1.67584,-0.0244 c -0.92171,-0.0134 -2.08075,-0.0337 -2.57563,-0.045 z M 124.25263,88.142569 c -15.77576,-0.232 -30.121035,-0.44305 -31.878385,-0.46899 -1.75736,-0.0259 -5.475888,-0.0801 -8.263408,-0.12041 -2.78752,-0.0403 -7.16713,-0.10483 -9.73246,-0.14344 -2.56533,-0.0386 -8.68025,-0.122 -13.58871,-0.18528 -4.90847,-0.0633 -9.21175,-0.13877 -9.56286,-0.167745 l -0.63837,-0.0527 1.39202,-4.22352 c 0.7656,-2.32293 1.47729,-4.49945 1.58153,-4.83669 l 0.18951,-0.61318 2.19086,0.0255 c 1.20497,0.0141 2.21353,0.0483 2.24125,0.076 0.0368,0.0368 -2.13312,6.80037 -2.4296,7.57297 -0.0333,0.0869 0.58812,0.11081 4.02226,0.15499 2.23392,0.0287 8.35813,0.11434 13.60936,0.19021 5.25122,0.0759 9.55288,0.13192 9.55924,0.12456 0.006,-0.007 0.58021,-1.82956 1.27524,-4.04932 1.08463,-3.46404 1.304,-4.09529 1.5482,-4.454889 0.82825,-1.21966 2.48859,-2.25376 4.431578,-2.76011 0.63703,-0.16601 0.89794,-0.19387 1.84382,-0.19688 1.74753,-0.006 3.11756,0.30652 4.01286,0.91413 0.51459,0.34924 0.79724,0.70145 1.05539,1.31516 0.16951,0.40298 0.19388,0.54287 0.15664,0.89919 -0.0361,0.345809 -1.90023,6.561659 -1.99673,6.658159 -0.0342,0.0342 -4.31633,0.01 -4.35096,-0.0248 -0.013,-0.013 0.44096,-1.27998 1.0087,-2.81561 1.15759,-3.13107 1.1937,-3.29531 0.80904,-3.67997 -0.22005,-0.220059 -0.32965,-0.254529 -1.06942,-0.336379 -0.74159,-0.082 -1.561708,0.29243 -2.013928,0.919619 -0.1,0.13863 -2.27583,7.45535 -2.27583,7.65285 0,0.018 1.64442,0.0553 3.654268,0.0828 2.00984,0.0275 5.85233,0.0823 8.53885,0.12177 2.686515,0.0395 9.594745,0.13757 15.351575,0.21801 5.75684,0.0804 12.74768,0.17943 15.5352,0.21999 17.88465,0.26021 20.9177,0.29849 20.95173,0.26446 0.0209,-0.0209 -0.36856,-1.2329 -0.86541,-2.69341 l -0.90336,-2.65545 0.24486,-1.11174 c 0.13467,-0.61145 0.27295,-1.16827 0.30729,-1.23738 0.0548,-0.11037 0.19005,-0.12471 1.11133,-0.11787 0.65107,0.005 1.10742,-0.0235 1.20319,-0.0748 0.19942,-0.10672 0.32529,-0.45578 0.22743,-0.63066 -0.18293,-0.32687 -0.38457,-0.34475 -4.39778,-0.39006 -2.09283,-0.0236 -3.83842,-0.0635 -3.87908,-0.0887 -0.0481,-0.0297 -0.0113,-0.455909 0.10518,-1.218779 0.0985,-0.64519 0.17958,-1.21956 0.18013,-1.27638 8.8e-4,-0.0882 0.63203,-0.0956 4.31547,-0.0506 2.54475,0.0311 4.46546,0.0847 4.6826,0.13072 0.47526,0.10067 0.86599,0.2988 1.32301,0.67087 0.64387,0.52418 0.89178,0.87415 1.09789,1.54989 l 0.18875,0.618839 -0.13649,0.58619 c -0.12197,0.52382 -0.18537,0.64528 -0.59589,1.14156 -0.48637,0.58801 -0.97053,0.92272 -1.5525,1.07331 -0.17815,0.0461 -0.37937,0.0998 -0.44716,0.11945 -0.10567,0.0305 0.0644,0.59087 1.19149,3.92533 l 1.31476,3.889715 -1.59548,-0.009 c -0.87752,-0.005 -14.50293,-0.19926 -30.27869,-0.43126 z m 9.10811,-3.176245 c -2.72693,-0.0379 -4.9783,-0.0907 -5.00305,-0.11736 -0.0248,-0.0267 0.3499,-1.43676 0.83257,-3.13351 0.48266,-1.69675 0.92659,-3.25817 0.98649,-3.46983 l 0.10894,-0.38482 1.51916,0.0367 c 0.83554,0.0202 3.06442,0.0568 4.95307,0.0813 1.88864,0.0245 3.43323,0.0655 3.43242,0.091 -8.1e-4,0.0255 -0.17505,0.65789 -0.3872,1.40527 l -0.38571,1.35887 -3.0599,-0.0271 -3.0599,-0.0271 -0.0786,0.30252 c -0.0433,0.16638 -0.11386,0.43806 -0.15691,0.60374 -0.0431,0.16567 -0.0641,0.31541 -0.0468,0.33274 0.0173,0.0173 1.44908,0.0516 3.18165,0.0762 1.73257,0.0246 3.16408,0.0568 3.18113,0.0716 0.0171,0.0148 -0.11562,0.6631 -0.29483,1.44056 l -0.32583,1.41356 -0.21934,0.007 c -0.12063,0.004 -2.45046,-0.0238 -5.17738,-0.0617 z m 11.88094,-0.0372 c -0.59588,-0.0124 -1.08342,-0.0422 -1.08342,-0.0663 0,-0.0241 0.18405,-0.75868 0.40901,-1.63236 0.22496,-0.87368 0.55742,-2.16694 0.73881,-2.87392 0.1814,-0.70698 0.36357,-1.41445 0.40484,-1.57215 l 0.075,-0.28672 1.76428,0.0431 c 0.97035,0.0237 1.77515,0.0539 1.78844,0.0672 0.0237,0.0237 -0.0784,0.49819 -0.43928,2.04241 -0.26362,1.12792 -0.67009,2.87489 -0.85024,3.65426 l -0.15705,0.67944 -0.7835,-0.0162 c -0.43092,-0.009 -1.27104,-0.0263 -1.86692,-0.0387 z m -21.32611,-0.09 -1.76938,-0.0387 -1.9384,-1.8852 -1.93842,-1.8852 0.50512,-1.49362 c 0.27781,-0.82149 0.54153,-1.53314 0.58605,-1.58146 0.0445,-0.0483 1.4692,-0.820799 3.16595,-1.716629 l 3.08501,-1.62877 2.80231,0.0405 c 2.76622,0.04 2.8028,0.0386 2.84108,-0.10774 0.0385,-0.14737 0.0651,-0.14795 4.32259,-0.0952 2.35609,0.0292 5.23147,0.0734 6.38972,0.0982 l 2.10591,0.0452 -0.56245,1.46012 -0.56245,1.460139 -1.50673,-0.0457 c -0.82871,-0.0251 -3.63044,-0.0672 -6.22607,-0.0935 -3.43713,-0.0348 -4.71932,-0.0704 -4.71932,-0.131019 0,-0.0457 0.14668,-0.59392 0.32594,-1.21815 0.17928,-0.62423 0.31774,-1.14319 0.30769,-1.15323 -0.0153,-0.0153 -9.22725,4.726679 -9.45145,4.865239 -0.041,0.0253 1.14126,1.05377 2.62717,2.28544 1.48591,1.23167 2.86692,2.38421 3.06892,2.56119 l 0.36726,0.32179 -1.02834,-0.0125 c -0.56558,-0.007 -1.82455,-0.0299 -2.79771,-0.0512 z m -10.19218,-0.20388 c -1.09496,-0.0195 -1.23233,-0.0355 -1.19271,-0.13874 0.0246,-0.0642 0.70888,-2.36885 1.52058,-5.12151 0.81169,-2.752659 1.63203,-5.533689 1.82297,-6.180079 l 0.34717,-1.17524 2.19287,-0.0195 c 1.20609,-0.0107 2.21485,0.006 2.2417,0.0367 0.0268,0.0309 -0.75514,2.66744 -1.73775,5.858959 -0.98261,3.19152 -1.85451,6.02586 -1.93755,6.29856 l -0.15098,0.4958 -0.9344,-0.0165 c -0.51392,-0.009 -1.49128,-0.0264 -2.1719,-0.0385 z m -6.86251,-0.0733 -0.82822,-0.0234 -1.88953,-1.84573 c -1.14511,-1.11855 -1.89533,-1.90618 -1.90422,-1.99916 -0.008,-0.0844 0.20677,-0.79797 0.47744,-1.58575 l 0.49214,-1.43232 3.15846,-1.675669 c 3.13843,-1.66504 3.16079,-1.67541 3.52572,-1.63496 0.20199,0.0224 1.44977,0.041 2.77283,0.0413 1.32306,3.7e-4 2.40556,0.0283 2.40556,0.0621 0,0.0338 -2.13933,1.17154 -4.75409,2.52827 -2.61476,1.356749 -4.76145,2.494219 -4.77043,2.527739 -0.009,0.0335 1.28899,1.13517 2.88437,2.44813 1.59539,1.31297 2.95392,2.44505 3.01896,2.51575 0.11241,0.12219 0.0224,0.12777 -1.82126,0.11284 -1.06674,-0.009 -2.31221,-0.0263 -2.76773,-0.0392 z m -10.104605,-0.21881 c -0.26451,-0.0279 -0.2792,-0.0422 -0.23444,-0.22698 0.0392,-0.16205 1.31939,-4.59553 3.25553,-11.274769 l 0.336675,-1.16151 2.20829,0.0511 c 1.21458,0.0281 2.21449,0.0556 2.22206,0.0612 0.0113,0.008 -1.05985,3.57238 -3.45718,11.502499 l -0.32198,1.06506 -1.863365,0.007 c -1.02487,0.004 -1.99038,-0.007 -2.14559,-0.0232 z m -35.856438,-0.24457 c -1.61595,-0.0272 -2.96033,-0.0539 -2.98751,-0.0594 -0.0272,-0.005 0.17414,-0.67931 0.44736,-1.49739 l 0.49678,-1.48741 h 3.51907 c 2.98995,0 3.55207,-0.0166 3.73853,-0.11074 0.24257,-0.1224 0.3169,-0.31739 0.18265,-0.47915 -0.19983,-0.24078 -0.61675,-0.27806 -3.61086,-0.3229 -1.64362,-0.0246 -3.01037,-0.0667 -3.03721,-0.0936 -0.05,-0.05 0.29876,-2.34018 0.39262,-2.57786 0.0491,-0.12422 0.21755,-0.13086 2.87927,-0.11344 3.75055,0.0245 3.62355,0.0306 4.00052,-0.190349 0.17337,-0.1016 0.33256,-0.22992 0.35375,-0.28515 0.0813,-0.2118 -0.17814,-0.38104 -0.6824,-0.44519 -0.18179,-0.0231 -3.48715,-0.076 -7.34525,-0.11757 -3.85809,-0.0415 -7.44441,-0.0915 -7.96959,-0.11107 -0.52519,-0.0196 -1.53533,-0.036 -2.24475,-0.0366 l -1.28987,-10e-4 -0.46451,-1.41396 c -0.25548,-0.77768 -0.48218,-1.46062 -0.50377,-1.51764 -0.0336,-0.0888 0.4307,-0.0968 3.22343,-0.0561 1.79447,0.0262 6.3532,0.0821 10.13049,0.1244 6.85239,0.0766 6.87057,0.0772 8.09426,0.26821 1.18307,0.18463 1.25191,0.20503 1.94649,0.57704 0.65737,0.35208 0.75045,0.42952 1.06937,0.88967 0.4521,0.65231 0.56105,1.15607 0.38372,1.77422 -0.16637,0.579999 -0.42388,1.008039 -0.90216,1.499659 l -0.40798,0.41936 0.11706,0.77251 c 0.13087,0.86368 0.0818,1.25729 -0.2341,1.87776 -0.50343,0.98883 -1.70642,1.86214 -3.2723,2.37554 -0.67812,0.22233 -1.99014,0.42202 -2.63871,0.40162 -0.24546,-0.008 -1.76844,-0.0363 -3.3844,-0.0635 z m 13.54668,-0.28239 c -0.77376,-0.18324 -0.90226,-0.23873 -1.43232,-0.61847 -0.93851,-0.67236 -1.20666,-1.22181 -1.20666,-2.47247 v -0.7881 l 1.47018,-4.360169 c 0.80859,-2.39809 1.50017,-4.39016 1.53684,-4.42683 0.0677,-0.0677 4.15265,-0.0383 4.22132,0.0303 0.0201,0.0201 -0.6091,1.93593 -1.39823,4.2574 -0.78912,2.321479 -1.45211,4.386139 -1.47331,4.588129 -0.0475,0.45266 0.12801,0.7153 0.61848,0.92554 0.53018,0.22726 1.23248,0.19198 1.80578,-0.0907 0.39979,-0.19714 0.50955,-0.29745 0.76344,-0.69763 0.27164,-0.42817 0.35303,-0.69384 0.97024,-3.166939 0.37055,-1.48475 0.7065,-2.8235 0.74656,-2.97499 l 0.0728,-0.27545 1.3744,0.01 c 0.75592,0.005 1.75726,0.0303 2.2252,0.0551 l 0.85078,0.0451 -0.46931,1.50578 c -1.74894,5.611449 -1.71641,5.526129 -2.43203,6.379089 -0.1812,0.21599 -0.56383,0.56779 -0.85027,0.78178 -1.40144,1.04696 -3.0785,1.509 -5.44212,1.49933 -0.93497,-0.004 -1.23049,-0.035 -1.9518,-0.2058 z"
       id="path239" /></g></svg>
