<?xml version="1.0" encoding="UTF-8" standalone="no"?>
<!-- Created with Inkscape (http://www.inkscape.org/) -->

<svg
   width="177.75615mm"
   height="58.002193mm"
   viewBox="0 0 177.75615 58.002193"
   version="1.1"
   id="svg5"
   xml:space="preserve"
   xmlns="http://www.w3.org/2000/svg"
   xmlns:svg="http://www.w3.org/2000/svg"><defs
     id="defs2" /><g
     id="layer1"
     transform="translate(-9.0232554,-36.767549)"><path
       style="fill:#000000;stroke-width:0.115388"
       d="m 151.46472,93.279711 c -0.6946,-0.112329 -1.02599,-0.28039 -1.37813,-0.69888 -0.26016,-0.309183 -0.30851,-0.458679 -0.26157,-0.808632 0.0672,-0.500883 0.38799,-0.980958 0.71659,-1.072354 0.75906,-0.211119 1.33081,0.04018 1.92275,0.845088 l 0.35944,0.48876 0.50988,-0.498663 c 0.28043,-0.274265 0.87205,-1.130918 1.31469,-1.903674 l 0.80482,-1.40501 -1.66813,-3.96054 c -2.6173,-6.214088 -2.58754,-6.160821 -3.60074,-6.444498 -0.49234,-0.137848 -0.50812,-0.156628 -0.50812,-0.60451 v -0.462241 l 2.68277,0.08306 c 1.47553,0.04568 2.72578,0.124303 2.77834,0.17471 0.0526,0.05041 0.0785,0.240769 0.0577,0.423025 -0.0345,0.302328 -0.0935,0.342025 -0.6721,0.452897 -0.41509,0.07953 -0.64622,0.18373 -0.66891,0.301545 -0.0318,0.16484 2.67102,6.85811 2.84348,7.041732 0.0896,0.09542 2.59338,-5.512871 2.78537,-6.239055 0.16167,-0.611527 0.11857,-0.666956 -0.7782,-1.000603 -0.63352,-0.235707 -0.66444,-0.266036 -0.69969,-0.686477 l -0.0369,-0.439873 1.71001,0.07414 c 0.94051,0.04078 1.95665,0.0748 2.2581,0.07559 0.54257,0.0014 0.54809,0.0053 0.54809,0.381271 0,0.344931 -0.0573,0.407921 -0.62373,0.685725 -0.34304,0.168246 -0.75525,0.478342 -0.91599,0.689099 -0.16076,0.210758 -1.37291,2.745461 -2.69369,5.632674 -2.67635,5.850524 -3.52878,7.368439 -4.60355,8.197627 -0.69432,0.535659 -1.50529,0.787599 -2.1826,0.678061 z m -10.26955,-0.242134 c -0.38078,-0.05808 -1.11644,-0.291787 -1.6348,-0.51934 -1.16392,-0.510948 -1.60602,-1.035106 -1.72468,-2.044774 -0.16236,-1.381366 0.4701,-2.117796 2.24171,-2.610245 l 1.11777,-0.310697 -0.74364,-0.376915 c -1.14536,-0.580517 -1.51264,-1.208703 -1.26227,-2.158903 0.12919,-0.490288 0.65956,-1.029789 1.41153,-1.435822 l 0.34453,-0.186031 -0.6251,-0.405338 c -0.85012,-0.55125 -1.29071,-1.059976 -1.60283,-1.850671 -0.2262,-0.573073 -0.25164,-0.782574 -0.18143,-1.49497 0.0982,-0.996676 0.22331,-1.254176 0.94818,-1.951756 0.68612,-0.660275 1.37922,-1.021212 2.30093,-1.198218 0.59004,-0.113311 0.93885,-0.101006 2.13468,0.0753 0.9436,0.139122 2.10587,0.211762 3.41984,0.213737 l 1.99044,0.003 v 0.605788 l 2e-5,0.605788 -1.39259,-0.04123 -1.39257,-0.04123 0.36425,0.721579 c 0.27002,0.5349 0.37975,0.933643 0.42414,1.54128 0.0575,0.78738 0.0426,0.849646 -0.37716,1.579115 -0.3615,0.628169 -0.578,0.851453 -1.25278,1.291975 -0.96784,0.631852 -1.48964,0.769033 -2.93954,0.772801 -0.98332,0.0026 -1.12155,0.03048 -1.4712,0.297163 -0.29994,0.228778 -0.3859,0.379011 -0.3859,0.674445 0,0.781079 0.48649,0.953157 3.17317,1.122398 2.9736,0.187315 3.90896,0.51963 4.71693,1.675826 0.33944,0.485739 0.44529,0.768017 0.52209,1.392368 0.0869,0.706211 0.066,0.860037 -0.21218,1.566476 -0.69504,1.764792 -2.66845,2.637513 -5.89225,2.605784 -0.72983,-0.0072 -1.63851,-0.06059 -2.01929,-0.118668 z m 4.55783,-1.128531 c 0.9013,-0.360953 1.34717,-0.828599 1.50224,-1.575591 0.0894,-0.430566 0.0908,-0.740236 0.005,-1.059452 -0.23938,-0.888988 -0.61887,-1.042839 -2.94328,-1.193286 -2.0063,-0.129858 -2.34148,-0.08713 -3.50139,0.446335 -0.69335,0.318877 -1.02507,1.428579 -0.67362,2.253397 0.43894,1.030121 1.66578,1.485382 3.82268,1.418525 0.85667,-0.02655 1.31736,-0.101234 1.78852,-0.289928 z m -2.08528,-9.075385 c 0.63129,-0.252588 0.98111,-0.763227 1.20885,-1.764535 0.18043,-0.793295 0.18058,-0.913288 0.002,-1.787554 -0.10513,-0.515447 -0.25358,-1.026299 -0.32987,-1.135226 -0.66441,-0.948579 -2.25802,-1.127163 -2.9825,-0.334227 -0.15115,0.165425 -0.36876,0.622348 -0.48358,1.015384 -0.17882,0.612117 -0.19233,0.861765 -0.0942,1.740595 0.15567,1.394266 0.64262,2.115975 1.57848,2.339476 0.53936,0.128806 0.60491,0.124403 1.10055,-0.07391 z m -14.55899,5.250619 c -0.61895,-0.145915 -1.69067,-0.710026 -2.27258,-1.196205 -2.67456,-2.234529 -2.78372,-6.925627 -0.2149,-9.235216 1.29454,-1.163902 2.51456,-1.525287 4.55178,-1.348281 1.67078,0.145169 2.52112,0.525345 3.56263,1.592805 0.93925,0.962644 1.35793,1.841906 1.54808,3.251068 0.184,1.363588 0.0791,2.437559 -0.34579,3.541038 -0.69558,1.806388 -2.05246,3.024093 -3.77758,3.390127 -0.70839,0.150305 -2.42273,0.152924 -3.05164,0.0047 z m 2.76454,-1.104028 c 0.4977,-0.251815 0.68561,-0.440811 1.06119,-1.067341 0.63167,-1.05373 0.84413,-1.962789 0.85237,-3.646925 0.006,-1.206306 -0.0356,-1.523755 -0.32098,-2.454012 -0.28195,-0.91913 -0.40982,-1.155329 -0.91475,-1.689879 -0.74735,-0.791171 -1.30366,-1.013315 -2.28731,-0.913355 -0.98818,0.100422 -1.56292,0.505626 -2.14652,1.513352 -0.88834,1.533966 -1.01206,4.409708 -0.27283,6.342191 0.30243,0.79063 1.10204,1.73544 1.6905,1.997464 0.71219,0.317125 1.61249,0.285747 2.33833,-0.0815 z m -22.92909,0.779212 c -1.16097,-0.267232 -1.90797,-0.672469 -2.72379,-1.477621 -1.22554,-1.2095 -1.76441,-2.59744 -1.7723,-4.564814 -0.007,-1.776012 0.61738,-3.314924 1.76695,-4.354161 0.77831,-0.703617 1.36704,-1.028227 2.32528,-1.282099 2.85816,-0.757226 5.89928,0.637686 6.96224,3.193469 0.2764,0.664566 0.4803,1.921854 0.4803,2.96164 0,2.612919 -1.77451,4.990624 -4.09628,5.488708 -1.0813,0.231969 -2.03695,0.243295 -2.9424,0.03488 z m 2.3622,-0.933529 c 0.16513,-0.06278 0.55051,-0.364419 0.85639,-0.670302 0.7238,-0.723801 1.03837,-1.555287 1.18745,-3.138744 0.0986,-1.046862 0.0818,-1.398318 -0.12302,-2.58518 -0.20057,-1.162021 -0.30611,-1.486925 -0.68517,-2.109291 -0.63659,-1.045172 -1.25486,-1.421102 -2.33719,-1.421102 -0.5788,0 -0.93589,0.06509 -1.25768,0.229255 -0.44548,0.227267 -1.43599,1.320119 -1.54549,1.705187 -0.5646,1.985321 -0.54648,3.948357 0.052,5.631522 0.29658,0.834132 0.47685,1.144484 0.94617,1.628972 0.36039,0.372034 0.73682,0.640419 0.99477,0.70925 0.56092,0.149677 1.54419,0.160187 1.91177,0.02043 z m 8.48428,0.925645 -2.25006,-0.06147 -0.0359,-0.371053 c -0.0388,-0.401039 -0.0246,-0.409128 0.9424,-0.539316 0.80536,-0.108422 0.76624,0.29397 0.7361,-7.570662 l -0.0272,-7.096373 -0.2613,-0.420193 c -0.23492,-0.377767 -0.35142,-0.442356 -1.15388,-0.639718 l -0.89258,-0.219526 -0.0351,-0.415848 -0.0351,-0.415847 1.36207,-0.07004 c 0.74914,-0.03852 1.7572,-0.09033 2.24013,-0.115141 0.48293,-0.02481 0.93106,-0.01157 0.99585,0.02942 0.077,0.04871 0.14458,2.79217 0.19512,7.920915 0.0425,4.315517 0.10665,8.00217 0.1425,8.19256 0.0359,0.19039 0.11997,0.41407 0.18692,0.497067 0.1644,0.203802 0.85459,0.483732 1.19268,0.483732 0.24318,0 0.27438,0.05248 0.27438,0.461553 v 0.461553 l -0.66348,-0.02507 c -0.36492,-0.01379 -1.67602,-0.05273 -2.91356,-0.08654 z m -20.798711,-0.320875 -1.817364,-0.03493 v -0.38747 c 0,-0.423733 0.172774,-0.525189 0.899503,-0.5282 0.253557,-10e-4 0.479564,-0.100883 0.678301,-0.299619 l 0.298044,-0.298046 -0.08537,-3.422722 c -0.09511,-3.81324 -0.180559,-4.274036 -0.905722,-4.884221 -0.719927,-0.605782 -2.085334,-0.510297 -3.16239,0.221148 -1.024476,0.695737 -0.984102,0.505365 -0.932831,4.398397 0.0362,2.748527 0.07812,3.469205 0.214011,3.679088 0.16942,0.261668 0.840828,0.567557 1.381019,0.629184 0.246486,0.02812 0.28847,0.09169 0.28847,0.436768 v 0.403859 l -2.884704,-0.04201 c -1.586587,-0.02311 -2.923647,-0.06512 -2.971245,-0.09335 -0.0476,-0.02824 -0.08654,-0.198498 -0.08654,-0.378363 0,-0.309925 0.03692,-0.333528 0.706,-0.451384 0.418039,-0.07364 0.772953,-0.208091 0.87015,-0.329647 0.136515,-0.170726 0.156893,-0.846349 0.121046,-4.013097 -0.05267,-4.653189 -0.08187,-4.764793 -1.328623,-5.079796 -0.50626,-0.127909 -0.543949,-0.163555 -0.576754,-0.545488 l -0.0351,-0.408636 1.47745,-0.07163 c 0.812598,-0.0394 1.693289,-0.08979 1.95709,-0.111981 0.263802,-0.02219 0.5467,0.001 0.628663,0.05175 0.08837,0.05461 0.168918,0.404531 0.197902,0.859713 l 0.04888,0.767612 0.418646,-0.393827 c 0.808624,-0.760685 1.495345,-1.094059 2.611022,-1.267543 0.930919,-0.144753 1.117203,-0.141604 1.798339,0.03041 0.417915,0.105538 0.92954,0.316601 1.136943,0.46903 0.360715,0.265107 0.956975,1.274254 1.186415,2.007966 0.0595,0.19039 0.14696,1.97125 0.19428,3.957465 0.0979,4.111098 0.0554,3.950053 1.11438,4.220198 0.49566,0.126445 0.57203,0.187299 0.63764,0.508112 0.041,0.200454 0.0468,0.392164 0.013,0.426024 -0.0339,0.03386 -0.55917,0.05 -1.16737,0.03586 -0.60819,-0.01413 -1.923611,-0.04141 -2.923161,-0.06062 z M 69.135262,87.165376 c -1.050375,-0.149977 -1.818028,-0.525483 -2.714523,-1.327843 -0.922728,-0.825838 -1.429902,-1.646451 -1.707619,-2.76295 -0.553273,-2.2243 -0.236126,-4.1496 0.947462,-5.751765 0.826063,-1.1182 1.864718,-1.704949 3.399845,-1.920612 1.822618,-0.256051 3.141423,0.08534 4.07787,1.055629 0.594265,0.615738 0.727879,0.954094 0.727879,1.843236 0,1.055102 -0.303482,1.474825 -1.071047,1.481279 -0.583056,0.0049 -1.174499,-0.255659 -1.415621,-0.623656 -0.175676,-0.268118 -0.182483,-0.412503 -0.06327,-1.342114 0.07348,-0.57292 0.09976,-1.096417 0.0584,-1.163325 -0.256855,-0.415601 -1.671051,-0.579353 -2.36953,-0.274372 -0.583266,0.254677 -0.836486,0.508494 -1.286228,1.289261 -0.518303,0.899796 -0.699108,1.754332 -0.685403,3.239408 0.01823,1.974975 0.476664,3.170924 1.59892,4.171174 0.820732,0.731507 1.556211,0.916417 2.825441,0.710353 l 0.850588,-0.138095 0.817452,-0.855495 c 0.449599,-0.470522 0.864996,-0.855152 0.923106,-0.854735 0.05811,4.62e-4 0.248882,0.09521 0.423938,0.21064 l 0.318286,0.20988 -0.454735,0.635029 c -0.451451,0.630445 -1.332231,1.381046 -2.065541,1.760255 -0.378695,0.195831 -1.939885,0.543705 -2.309267,0.514563 -0.105479,-0.0083 -0.477364,-0.05591 -0.826413,-0.105745 z m 15.49086,0.03454 -1.875057,-0.03477 v -0.388655 c 0,-0.437399 0.137398,-0.528734 0.795397,-0.528734 0.282914,0 0.523008,-0.08632 0.700786,-0.251943 l 0.270429,-0.251943 -0.07452,-3.353937 c -0.07992,-3.597054 -0.160245,-4.169791 -0.668952,-4.769755 -0.335782,-0.396019 -0.998832,-0.718863 -1.476383,-0.718863 -0.684071,0 -1.784664,0.478601 -2.344924,1.019708 l -0.548094,0.529357 0.01084,2.485183 c 0.006,1.36685 0.04501,2.970492 0.08677,3.563647 0.07126,1.011996 0.09668,1.095009 0.41259,1.346904 0.18516,0.147642 0.574491,0.311614 0.865178,0.364381 0.511971,0.09294 0.529679,0.110051 0.565425,0.54643 l 0.0369,0.450487 -1.584038,-0.07597 c -0.871217,-0.04178 -2.198921,-0.07597 -2.950449,-0.07597 h -1.36641 v -0.398631 c 0,-0.371345 0.02962,-0.403391 0.432706,-0.4682 0.858491,-0.13803 0.96181,-0.182439 1.092681,-0.46967 0.09994,-0.219352 0.10217,-2.015694 0.009,-7.247039 -0.131793,-7.398751 -0.124241,-7.314097 -0.698897,-7.834155 -0.18089,-0.163702 -1.204886,-0.424921 -1.679005,-0.42831 -0.05143,-3.46e-4 -0.07739,-0.195386 -0.05769,-0.433374 l 0.03581,-0.432706 2.180175,-0.09297 c 1.430759,-0.06101 2.220017,-0.05313 2.296082,0.02294 0.07076,0.07076 0.138001,1.646378 0.172628,4.045017 0.0312,2.16101 0.07846,3.929109 0.105034,3.929109 0.02657,0 0.447665,-0.30345 0.93576,-0.674333 0.488096,-0.370883 1.147069,-0.760062 1.464387,-0.864841 1.123323,-0.370926 2.820378,-0.194575 3.622252,0.37641 0.415797,0.296073 1.048564,1.365426 1.193738,2.017375 0.05785,0.259794 0.142071,2.004131 0.187155,3.876304 0.09765,4.054934 0.07989,3.987945 1.141274,4.304848 0.701725,0.209517 0.721176,0.225947 0.721176,0.609166 v 0.393842 l -1.06734,-0.02578 c -0.587037,-0.01418 -1.911116,-0.04143 -2.942398,-0.06055 z M 57.307975,86.886605 c -0.780112,-0.117104 -1.078221,-0.232417 -1.924469,-0.744416 -0.897488,-0.543 -1.063099,-0.699879 -1.596481,-1.512319 -0.871314,-1.327174 -1.07661,-2.048437 -1.083131,-3.805357 -0.0061,-1.652517 0.208317,-2.435966 0.979133,-3.577033 1.540313,-2.280181 4.622569,-2.869383 7.008859,-1.339809 0.667592,0.427916 0.881767,0.649836 1.310933,1.35835 0.458689,0.757252 0.527426,0.965211 0.649534,1.965164 0.07511,0.615062 0.13656,1.233435 0.13656,1.374164 v 0.255869 l -3.877308,-0.08013 -3.877308,-0.08014 0.07669,0.725264 c 0.120432,1.138985 0.604479,2.363163 1.210301,3.0609 0.860819,0.991424 2.380761,1.417127 3.845513,1.077046 0.487818,-0.113261 1.584219,-0.990372 1.894441,-1.515537 0.237128,-0.401428 0.318553,-0.412101 0.818482,-0.107299 l 0.379277,0.231244 -0.435714,0.614498 c -0.239642,0.337975 -0.76152,0.869799 -1.159728,1.181832 -0.596522,0.467429 -0.901524,0.612547 -1.73208,0.824109 -1.121047,0.285555 -1.301786,0.292005 -2.6235,0.0936 z m 2.990558,-7.533291 c -0.317126,-1.766363 -0.388362,-2.018541 -0.67717,-2.397186 -0.439856,-0.576681 -0.81311,-0.785945 -1.551937,-0.870088 -1.402254,-0.159699 -2.457292,0.761682 -2.820101,2.462836 -0.105281,0.493646 -0.191419,0.946039 -0.191419,1.005317 0,0.11151 0.989339,0.166699 3.726496,0.207879 l 1.591817,0.02395 z m -18.481419,7.150515 -1.413505,-0.0324 v -0.447642 -0.447643 l 0.983442,-0.08192 c 0.869195,-0.0724 1.025321,-0.12104 1.343932,-0.418666 l 0.360488,-0.336748 -0.07297,-1.582137 c -0.04013,-0.870175 -0.107102,-3.036027 -0.148823,-4.813005 -0.04172,-1.776978 -0.09043,-3.308756 -0.108253,-3.403951 -0.01782,-0.0952 -0.03637,-0.997164 -0.04123,-2.004376 l -0.0088,-1.831293 -1.424019,0.04741 c -1.398284,0.04655 -1.432478,0.05411 -1.892097,0.418131 -0.545133,0.431754 -1.120965,1.284205 -1.533109,2.269588 -0.27594,0.659731 -0.314239,0.698586 -0.722104,0.73255 -0.278518,0.02319 -0.449136,-0.01758 -0.482854,-0.115388 -0.02868,-0.08319 -0.06721,-1.105774 -0.08561,-2.272407 l -0.03347,-2.121152 7.327148,0.08341 c 4.029932,0.04588 7.36695,0.121129 7.415597,0.16723 0.04865,0.0461 0.121888,1.083548 0.162758,2.305436 l 0.07431,2.221615 -0.447566,-0.03692 c -0.428933,-0.03538 -0.464534,-0.07093 -0.855087,-0.853869 -0.540294,-1.083121 -1.051505,-1.791294 -1.615602,-2.238068 -0.410074,-0.324784 -0.585168,-0.378533 -1.531371,-0.470085 -0.587597,-0.05685 -1.229144,-0.104777 -1.42566,-0.106496 l -0.357303,-0.0031 0.04614,1.413505 c 0.02538,0.777428 0.115633,3.776078 0.200572,6.663667 0.105367,3.582013 0.199112,5.346941 0.295043,5.554755 0.178591,0.386875 0.522568,0.548064 1.6729,0.783926 l 0.923105,0.189272 0.03637,0.437885 0.03638,0.437886 -2.632609,-0.03829 c -1.447935,-0.02106 -3.268686,-0.05287 -4.046114,-0.07069 z M 133.63724,65.016353 C 108.85475,64.651902 86.319444,64.320367 83.558782,64.279609 80.79812,64.238851 74.956594,64.153733 70.577614,64.090458 c -4.378981,-0.06327 -11.259,-0.16468 -15.288932,-0.225343 -4.029932,-0.06066 -13.635996,-0.19164 -21.34681,-0.291058 -7.710814,-0.09942 -14.470937,-0.217993 -15.022495,-0.2635 l -1.002833,-0.08274 2.186747,-6.63482 c 1.202712,-3.649151 2.320719,-7.068282 2.484462,-7.598071 l 0.297713,-0.96325 3.441668,0.04015 c 1.892916,0.02208 3.47729,0.0758 3.520829,0.119376 0.0578,0.05785 -3.35097,10.682849 -3.81671,11.896548 -0.05236,0.136444 0.923888,0.174062 6.318651,0.243476 3.509317,0.04515 13.129977,0.179613 21.379242,0.298798 8.249267,0.119184 15.006836,0.207237 15.016819,0.195673 0.01,-0.01156 0.911472,-2.874086 2.003308,-6.361156 1.703862,-5.441744 2.048486,-6.433389 2.432095,-6.998279 1.301121,-1.915985 3.909392,-3.540483 6.961674,-4.33591 1.00072,-0.260789 1.410595,-0.304556 2.896493,-0.309295 2.745228,-0.0088 4.897442,0.481522 6.30389,1.436031 0.808386,0.548624 1.252403,1.10193 1.657937,2.06602 0.266288,0.633053 0.304566,0.852796 0.246061,1.412547 -0.05678,0.543236 -2.985108,10.307849 -3.136703,10.459444 -0.05379,0.05379 -6.780606,0.01551 -6.835009,-0.0389 -0.02035,-0.02035 0.692709,-2.010752 1.584585,-4.423108 1.818484,-4.918657 1.875207,-5.176672 1.270937,-5.780943 -0.345683,-0.345684 -0.517849,-0.399837 -1.679981,-0.528419 -1.166239,-0.129036 -2.453349,0.459362 -3.165461,1.447076 -0.158253,0.2195 -3.573404,11.706311 -3.573404,12.019091 0,0.02843 2.55729,0.08706 5.682867,0.130294 3.125577,0.04323 9.16182,0.129307 13.413874,0.191285 4.252053,0.06198 15.130272,0.216143 24.173822,0.342593 9.04354,0.12645 20.02561,0.282037 24.40459,0.345749 28.07646,0.408496 32.85999,0.468996 32.91272,0.416267 0.0323,-0.03234 -0.57952,-1.935949 -1.3597,-4.230245 l -1.41849,-4.171449 0.38486,-1.747329 c 0.21167,-0.961031 0.42899,-1.836157 0.48292,-1.944723 0.0861,-0.173374 0.29857,-0.195904 1.74581,-0.185156 1.79987,0.01337 2.0654,-0.05466 2.24705,-0.575712 0.14992,-0.430084 0.008,-0.670368 -0.52931,-0.896487 -0.3593,-0.151192 -1.36451,-0.19017 -6.39142,-0.247836 -3.28079,-0.03764 -6.01734,-0.100731 -6.08122,-0.140213 -0.0755,-0.04668 -0.0178,-0.716181 0.16523,-1.914587 0.15477,-1.013541 0.28211,-1.915833 0.28297,-2.005097 0.001,-0.138559 0.99287,-0.150176 6.77926,-0.07943 3.99761,0.04888 7.01489,0.13311 7.356,0.20536 0.74661,0.158143 1.36041,0.469388 2.07836,1.053877 1.01146,0.823448 1.4009,1.373231 1.72469,2.434767 l 0.29652,0.972132 -0.21442,0.920855 c -0.19161,0.822882 -0.2912,1.013677 -0.9361,1.793306 -0.76405,0.923705 -1.52462,1.449517 -2.43886,1.686088 -0.27985,0.07241 -0.59596,0.156849 -0.70245,0.187632 -0.166,0.04798 0.10118,0.928212 1.87173,6.1664 l 2.06539,6.110429 -2.50638,-0.01484 c -1.37851,-0.0082 -22.78296,-0.313022 -47.56546,-0.677473 z m 14.30814,-4.989625 c -4.28379,-0.05949 -7.82018,-0.142456 -7.85864,-0.184363 -0.0385,-0.04191 0.55012,-2.257029 1.30799,-4.922496 0.75787,-2.665467 1.45491,-5.118339 1.54896,-5.450828 l 0.17103,-0.604524 2.38648,0.0577 c 1.31256,0.03173 4.81673,0.08928 7.78703,0.127877 l 5.40055,0.07018 -0.0685,0.303566 c -0.0377,0.166961 -0.31533,1.160322 -0.61699,2.20747 l -0.54847,1.903905 -4.80427,-0.04252 -4.80428,-0.04252 -0.13166,0.504073 c -0.0724,0.27724 -0.18825,0.699124 -0.2574,0.937522 -0.0692,0.238397 -0.0979,0.461308 -0.0638,0.495357 0.0341,0.03405 2.28811,0.09275 5.00902,0.130443 2.72091,0.03769 4.96903,0.08767 4.99583,0.111056 0.0268,0.02339 -0.18164,1.04179 -0.46316,2.263119 l -0.51185,2.220596 -0.34457,0.01129 c -0.1895,0.0062 -3.84948,-0.0374 -8.13326,-0.09689 z m 18.66403,-0.05838 c -0.93608,-0.01939 -1.70197,-0.06626 -1.70197,-0.104141 0,-0.03788 0.28914,-1.191819 0.64252,-2.564303 0.35339,-1.372483 0.87566,-3.404105 1.16062,-4.514716 0.28496,-1.110612 0.57114,-2.221984 0.63597,-2.469717 l 0.11787,-0.450422 2.77154,0.06763 c 1.52434,0.0372 2.78863,0.08471 2.8095,0.105591 0.0372,0.03721 -0.1231,0.782618 -0.69008,3.208472 -0.41411,1.771881 -1.05265,4.516235 -1.33566,5.740562 l -0.24671,1.06734 -1.23081,-0.02551 c -0.67695,-0.01403 -1.9967,-0.04138 -2.93279,-0.06078 z m -33.50166,-0.141384 -2.77955,-0.06079 -3.04508,-2.961502 -3.0451,-2.961502 0.79349,-2.346354 c 0.43643,-1.290494 0.85072,-2.408453 0.92065,-2.484353 0.0699,-0.0759 2.308,-1.289403 4.97346,-2.696675 l 4.84631,-2.558675 4.4022,0.06367 c 4.34553,0.06285 4.403,0.06067 4.46313,-0.169257 0.0605,-0.231496 0.10231,-0.232416 6.79044,-0.14961 3.70124,0.04583 8.21823,0.115264 10.03775,0.154309 l 3.30823,0.07099 -0.88356,2.293746 -0.88358,2.293746 -2.36695,-0.07181 c -1.30184,-0.0395 -5.70313,-0.105618 -9.78066,-0.14694 -5.39946,-0.05472 -7.41369,-0.110635 -7.41369,-0.205806 0,-0.07187 0.23042,-0.933002 0.51203,-1.913623 0.28163,-0.980622 0.49914,-1.795859 0.48335,-1.811637 -0.024,-0.02399 -14.4951,7.425127 -14.84695,7.642576 -0.0641,0.03959 1.79312,1.655022 4.12708,3.589845 2.33396,1.934823 4.50317,3.745515 4.82049,4.02376 l 0.57694,0.505901 -1.61543,-0.01961 c -0.88849,-0.01079 -2.86623,-0.04697 -4.395,-0.0804 z m -16.01111,-0.320271 c -1.72012,-0.03068 -1.93591,-0.05578 -1.87368,-0.217959 0.0387,-0.100807 1.11361,-3.721274 2.38873,-8.045483 1.27511,-4.32421 2.5638,-8.692994 2.86376,-9.70841 l 0.54536,-1.846211 3.44484,-0.0306 c 1.89466,-0.01683 3.47946,0.0091 3.52176,0.05769 0.0423,0.04856 -1.13065,4.008604 -2.60658,8.800098 -1.47593,4.791494 -2.84577,9.244035 -3.04409,9.894536 l -0.36059,1.182729 -1.46775,-0.02586 c -0.80727,-0.01422 -2.34256,-0.04146 -3.41176,-0.06054 z m -10.72106,-0.11517 -1.35702,-0.03655 -3.03979,-2.966541 -3.039798,-2.96654 0.819782,-2.424184 0.819786,-2.424185 4.96169,-2.632336 c 4.93023,-2.615647 4.96535,-2.631932 5.53863,-2.56839 0.31732,0.03517 2.27747,0.0644 4.3559,0.06495 2.07843,5.77e-4 3.77896,0.04345 3.77896,0.09532 0,0.05188 -3.36083,1.839408 -7.46851,3.972291 -4.10769,2.132885 -7.47997,3.920785 -7.49397,3.973113 -0.014,0.05233 2.02509,1.782694 4.53132,3.845257 2.50622,2.062564 4.64036,3.840984 4.74253,3.952045 0.17659,0.191946 0.038,0.200703 -2.80336,0.177118 -1.64402,-0.01365 -3.59979,-0.04126 -4.34615,-0.06137 z M 90.442623,59.047795 c -0.415537,-0.04391 -0.438609,-0.06624 -0.368294,-0.356561 0.06166,-0.254571 2.072665,-7.219221 5.114185,-17.711772 l 0.528918,-1.824649 3.469045,0.0802 c 1.907973,0.04411 3.478763,0.0874 3.490643,0.0962 0.0178,0.01319 -1.66493,5.61193 -5.430925,18.069511 l -0.505796,1.673128 -2.927234,0.0104 c -1.60998,0.0057 -3.126724,-0.01068 -3.370542,-0.03644 z M 34.114954,58.663598 c -2.538539,-0.04271 -4.650458,-0.08471 -4.69315,-0.09333 -0.04269,-0.0086 0.273554,-1.067146 0.702771,-2.352282 l 0.780398,-2.336611 h 5.528188 c 4.696978,0 5.580025,-0.02616 5.872942,-0.17396 0.381054,-0.192278 0.497818,-0.498597 0.28692,-0.752713 -0.313914,-0.378243 -0.968868,-0.436812 -5.67238,-0.50725 -2.581998,-0.03867 -4.729048,-0.104809 -4.771221,-0.146982 -0.07861,-0.07861 0.469327,-3.676244 0.616776,-4.049611 0.07707,-0.195142 0.341761,-0.205571 4.523116,-0.178212 5.89181,0.03855 5.69231,0.04804 6.284496,-0.299002 0.272351,-0.159608 0.522425,-0.361187 0.55572,-0.447954 0.127678,-0.332724 -0.27984,-0.598583 -1.071993,-0.699353 -0.285586,-0.03633 -5.478053,-0.119444 -11.538816,-0.184699 -6.060764,-0.06526 -11.694591,-0.143773 -12.519616,-0.174482 -0.825025,-0.03071 -2.41187,-0.05657 -3.526322,-0.05747 l -2.026276,-0.0016 -0.729712,-2.221222 C 12.315454,42.765192 11.959312,41.6923 11.925369,41.60266 c -0.05284,-0.139547 0.666983,-0.152241 5.006057,-0.08828 2.787274,0.04109 9.974653,0.130617 15.971953,0.198956 10.809975,0.123179 10.920131,0.126781 12.750391,0.416922 1.7436,0.276405 1.909315,0.325711 2.981573,0.887134 1.018108,0.533068 1.193137,0.673696 1.694785,1.361678 1.208145,1.656903 0.940518,3.422659 -0.78805,5.199421 l -0.640913,0.658782 0.183893,1.213547 c 0.205596,1.356779 0.128512,1.975104 -0.367743,2.949827 -0.790856,1.553364 -2.680658,2.925269 -5.140531,3.731778 -1.065271,0.349266 -3.126358,0.662971 -4.145213,0.630914 -0.385599,-0.01213 -2.778077,-0.057 -5.316617,-0.09972 z M 55.395725,58.21998 C 54.180213,57.932121 53.97835,57.844957 53.145656,57.248406 51.671339,56.19219 51.250096,55.32905 51.250096,53.364349 v -1.238035 l 2.30953,-6.849474 c 1.270242,-3.76721 2.356658,-6.896602 2.41426,-6.954204 0.10634,-0.10634 6.523487,-0.0602 6.631368,0.04768 0.03157,0.03157 -0.956856,3.041191 -2.196508,6.688041 -1.239652,3.646851 -2.281156,6.890261 -2.314453,7.207579 -0.07462,0.711091 0.201092,1.123688 0.971572,1.453954 0.832872,0.357011 1.936137,0.301578 2.836742,-0.142529 0.628039,-0.309701 0.800467,-0.467266 1.199299,-1.095925 0.426727,-0.672627 0.554588,-1.089974 1.524175,-4.974999 0.582105,-2.332428 1.10986,-4.435496 1.17279,-4.673484 l 0.114417,-0.432706 2.15908,0.01565 c 1.187494,0.0086 2.760516,0.04755 3.495604,0.08654 l 1.336522,0.0709 -0.737252,2.365458 c -2.747451,8.815138 -2.696351,8.681104 -3.820526,10.021045 -0.284664,0.3393 -0.885734,0.891951 -1.335711,1.228111 -2.201564,1.644703 -4.836081,2.370528 -8.549148,2.355341 -1.468765,-0.006 -1.932998,-0.05496 -3.066132,-0.323309 z"
       id="path1623" /></g></svg>
